<svg xmlns="http://www.w3.org/2000/svg" viewBox="0 0 165.7 158.75">
  <title>steno_key</title>
  <g>
    <g>
      <path d="M23.85,135.69c-10,0-18.17-8.48-18.17-18.91V89.71H42v27.07C42,127.21,33.87,135.69,23.85,135.69Z" style="fill: #c1ddea"/>
      <path d="M40.52,91.21v25.57c0,9.6-7.48,17.41-16.67,17.41S7.19,126.38,7.19,116.78V91.21H40.52m3-3H4.19v28.57c0,11.27,8.81,20.41,19.67,20.41s19.67-9.14,19.67-20.41V88.21h0Z" style="fill: #00638e"/>
    </g>
    <g>
      <path d="M63.19,135.69c-10,0-18.17-8.48-18.17-18.91V89.71H81.35v27.07C81.35,127.21,73.2,135.69,63.19,135.69Z" style="fill: #c1ddea"/>
      <path d="M79.85,91.21v25.57c0,9.6-7.48,17.41-16.67,17.41s-16.67-7.81-16.67-17.41V91.21H79.85m3-3H43.52v28.57c0,11.27,8.81,20.41,19.67,20.41s19.67-9.14,19.67-20.41V88.21h0Z" style="fill: #00638e"/>
    </g>
    <g>
      <path d="M102.52,135.69c-10,0-18.17-8.48-18.17-18.91V89.71h36.33v27.07C120.69,127.21,112.54,135.69,102.52,135.69Z" style="fill: #63a1b7"/>
      <path d="M119.19,91.21v25.57c0,9.6-7.48,17.41-16.67,17.41s-16.67-7.81-16.67-17.41V91.21h33.33m3-3H82.85v28.57c0,11.27,8.81,20.41,19.67,20.41s19.67-9.14,19.67-20.41V88.21h0Z" style="fill: #00638e"/>
    </g>
    <g>
      <path d="M141.85,135.69c-10,0-18.17-8.48-18.17-18.91V89.71H160v27.07C160,127.21,151.87,135.69,141.85,135.69Z" style="fill: #c1ddea"/>
      <path d="M158.52,91.21v25.57c0,9.6-7.48,17.41-16.67,17.41s-16.67-7.81-16.67-17.41V91.21h33.33m3-3H122.19v28.57c0,11.27,8.81,20.41,19.67,20.41s19.67-9.14,19.67-20.41V88.21h0Z" style="fill: #00638e"/>
    </g>
    <g>
      <rect x="5.69" y="45.27" width="36.33" height="41.44" style="fill: #c1ddea"/>
      <path d="M40.52,46.77V85.21H7.19V46.77H40.52m3-3H4.19V88.21H43.52V43.77h0Z" style="fill: #00638e"/>
    </g>
    <g>
      <rect x="45.02" y="45.27" width="36.33" height="41.44" style="fill: #63a1b7"/>
      <path d="M79.85,46.77V85.21H46.52V46.77H79.85m3-3H43.52V88.21H82.85V43.77h0Z" style="fill: #00638e"/>
    </g>
    <g>
      <rect x="84.35" y="45.27" width="36.33" height="41.44" style="fill: #c1ddea"/>
      <path d="M119.19,46.77V85.21H85.85V46.77h33.33m3-3H82.85V88.21h39.33V43.77h0Z" style="fill: #00638e"/>
    </g>
    <g>
      <rect x="123.69" y="45.27" width="36.33" height="41.44" style="fill: #c1ddea"/>
      <path d="M158.52,46.77V85.21H125.19V46.77h33.33m3-3H122.19V88.21h39.33V43.77h0Z" style="fill: #00638e"/>
    </g>
    <g>
      <rect x="5.69" y="23.05" width="154.33" height="19.22" style="fill: #c1ddea"/>
      <path d="M158.52,24.55V40.77H7.19V24.55H158.52m3-3H4.19V43.77H161.52V21.55h0Z" style="fill: #00638e"/>
    </g>
  </g>
</svg>
