<svg xmlns="http://www.w3.org/2000/svg" xmlns:xlink="http://www.w3.org/1999/xlink" viewBox="0 0 44.80375 46.48462"><defs><radialGradient id="a" cx="36.23164" cy="43.62817" r="12.95803" gradientTransform="translate(-4.33607 -3.09731)" gradientUnits="userSpaceOnUse"><stop offset="0" stop-color="#fff588"/><stop offset="0.31319" stop-color="#fff350"/><stop offset="1" stop-color="#faa919"/></radialGradient></defs><title>fancy_tape</title><path d="M35.77956,12.26847L35.8669,3.35934l6.02676-.262a4.95841,4.95841,0,0,1,4.54191,4.62925v4.45456l-10.656.08734h0Z" transform="translate(-4.33557 -3.09731)" style="fill:#2a8bd3"/><path d="M37.35175,46.33278V7.72656a4.51083,4.51083,0,0,1,4.54191-4.54191H8.87748A4.51083,4.51083,0,0,0,4.33557,7.72656V46.42013l33.01618-.08734h0Z" transform="translate(-4.33557 -3.09731)" style="fill:#8bd3f7"/><rect x="5.67739" y="27.3388" width="5.67739" height="2.27095" style="fill:#2a8bd3"/><rect x="12.31556" y="22.79689" width="6.02676" height="2.27095" style="fill:#2a8bd3"/><rect x="5.67739" y="14.49917" width="9.08382" height="2.27095" style="fill:#2a8bd3"/><rect x="17.20685" y="9.17116" width="8.99647" height="2.27095" style="fill:#2a8bd3"/><rect x="18.77905" y="31.88071" width="7.42427" height="2.27095" style="fill:#2a8bd3"/><rect x="7.94834" y="36.5973" width="9.08382" height="2.27095" style="fill:#2a8bd3"/><rect x="22.44751" y="18.25498" width="4.10519" height="2.27095" style="fill:#2a8bd3"/><rect x="5.67739" y="9.17116" width="3.75581" height="2.27095" style="fill:#2a8bd3"/><rect x="22.44751" y="27.3388" width="3.75581" height="2.27095" style="fill:#2a8bd3"/><polygon points="29.234 40.861 20.276 45.571 21.987 35.594 14.739 28.53 24.754 27.075 29.234 17.998 33.713 27.075 43.73 28.53 36.482 35.594 38.193 45.571 29.234 40.861" style="fill:url(#a)"/><path d="M33.56966,22.225l3.915,7.932,0.23266,0.4714L38.2375,30.704l8.75293,1.27215-6.334,6.17416-0.37646.367,0.08887,0.51817,1.49533,8.71841L34.035,43.63738l-0.46538-.24469-0.46538.24469-7.82917,4.11643,1.49533-8.71841,0.08887-.51817-0.37646-.367-6.334-6.17416L28.90182,30.704l0.52023-.07561,0.23266-.4714,3.91495-7.932m0-2.25941L28.758,29.71437,18,31.27793l7.78483,7.58843L23.947,49.58192l9.6227-5.05943,9.6227,5.05943L41.35449,38.86635l7.78483-7.58843-10.758-1.56356-4.81167-9.7488h0Z" transform="translate(-4.33557 -3.09731)" style="fill:#d88119"/></svg>